<?xml version="1.0" encoding="UTF-8"?>
<!DOCTYPE svg PUBLIC "-//W3C//DTD SVG 1.1//EN" "http://www.w3.org/Graphics/SVG/1.1/DTD/svg11.dtd">
<svg xmlns="http://www.w3.org/2000/svg" version="1.1" width="32px" height="32px" style="shape-rendering:geometricPrecision; text-rendering:geometricPrecision; image-rendering:optimizeQuality; fill-rule:evenodd; clip-rule:evenodd" xmlns:xlink="http://www.w3.org/1999/xlink">
<g><path style="opacity:0.983" fill="#fdfcf9" d="M -0.5,-0.5 C 10.1667,-0.5 20.8333,-0.5 31.5,-0.5C 31.5,10.1667 31.5,20.8333 31.5,31.5C 20.8333,31.5 10.1667,31.5 -0.5,31.5C -0.5,20.8333 -0.5,10.1667 -0.5,-0.5 Z"/></g>
<g><path style="opacity:1" fill="#e6cf97" d="M 14.5,0.5 C 17.2153,2.12297 20.2153,2.78964 23.5,2.5C 23.3838,5.91032 25.0504,7.24365 28.5,6.5C 28.6427,8.26241 28.3094,9.92908 27.5,11.5C 28.5,12.8333 29.5,14.1667 30.5,15.5C 29.5,16.8333 28.5,18.1667 27.5,19.5C 28.3094,21.0709 28.6427,22.7376 28.5,24.5C 25.0504,23.7564 23.3838,25.0897 23.5,28.5C 20.5178,28.1044 17.8511,28.7711 15.5,30.5C 13.1489,28.7711 10.4822,28.1044 7.5,28.5C 7.59436,25.4594 6.09436,23.7928 3,23.5C 2.40544,22.1011 2.57211,20.7678 3.5,19.5C 2.5,18.1667 1.5,16.8333 0.5,15.5C 1.5,14.1667 2.5,12.8333 3.5,11.5C 1.83459,7.97756 3.00125,5.97756 7,5.5C 7.48278,4.55198 7.64945,3.55198 7.5,2.5C 9.5273,2.66212 11.5273,2.49546 13.5,2C 14.056,1.61742 14.3893,1.11742 14.5,0.5 Z"/></g>
<g><path style="opacity:1" fill="#332180" d="M 20.5,10.5 C 22.2252,10.8425 22.7252,11.8425 22,13.5C 19.8333,15.6667 17.6667,17.8333 15.5,20C 12.3522,20.0598 10.0188,18.5598 8.5,15.5C 8.83333,15.1667 9.16667,14.8333 9.5,14.5C 10.8333,15.5 12.1667,16.5 13.5,17.5C 16.1878,15.4789 18.5211,13.1456 20.5,10.5 Z"/></g>
</svg>
